<svg width="640" height="360" viewBox="0 0 640 360" fill="none" xmlns="http://www.w3.org/2000/svg">
  <rect width="640" height="360" rx="28" fill="url(#bg)"/>
  <rect x="28" y="28" width="584" height="304" rx="24" fill="#FCFCFF" fill-opacity="0.92"/>
  <rect x="58" y="54" width="220" height="24" rx="12" fill="#8AA8FF"/>
  <rect x="58" y="92" width="332" height="54" rx="18" fill="#1C2458"/>
  <rect x="58" y="162" width="254" height="126" rx="26" fill="url(#card1)"/>
  <rect x="338" y="162" width="244" height="126" rx="26" fill="url(#card2)"/>
  <rect x="86" y="190" width="160" height="18" rx="9" fill="#FFFFFF" fill-opacity="0.85"/>
  <rect x="86" y="220" width="194" height="12" rx="6" fill="#FFFFFF" fill-opacity="0.65"/>
  <rect x="86" y="242" width="174" height="12" rx="6" fill="#FFFFFF" fill-opacity="0.5"/>
  <rect x="366" y="188" width="88" height="88" rx="24" fill="#FFFFFF" fill-opacity="0.88"/>
  <circle cx="410" cy="220" r="22" fill="#FFB15D"/>
  <path d="M470 252C470 233.222 485.222 218 504 218H514C532.778 218 548 233.222 548 252V276H470V252Z" fill="#FFFFFF" fill-opacity="0.74"/>
  <rect x="458" y="88" width="116" height="38" rx="19" fill="url(#button)"/>
  <rect x="485" y="101" width="62" height="12" rx="6" fill="white" fill-opacity="0.92"/>
  <defs>
    <linearGradient id="bg" x1="42" y1="18" x2="600" y2="334" gradientUnits="userSpaceOnUse">
      <stop stop-color="#E8F0FF"/>
      <stop offset="1" stop-color="#FFF4E8"/>
    </linearGradient>
    <linearGradient id="card1" x1="58" y1="162" x2="312" y2="288" gradientUnits="userSpaceOnUse">
      <stop stop-color="#5B8CFF"/>
      <stop offset="1" stop-color="#6ED6FF"/>
    </linearGradient>
    <linearGradient id="card2" x1="338" y1="162" x2="582" y2="288" gradientUnits="userSpaceOnUse">
      <stop stop-color="#FFD166"/>
      <stop offset="1" stop-color="#FF965E"/>
    </linearGradient>
    <linearGradient id="button" x1="458" y1="88" x2="574" y2="126" gradientUnits="userSpaceOnUse">
      <stop stop-color="#7B63FF"/>
      <stop offset="1" stop-color="#27D3EC"/>
    </linearGradient>
  </defs>
</svg>
